<svg xmlns="http://www.w3.org/2000/svg" class="ionicon" viewBox="0 0 512 512">
  <title>Document Text</title>
  <path
    d="M416 221.25V416a48 48 0 01-48 48H144a48 48 0 01-48-48V96a48 48 0 0148-48h98.75a32 32 0 0122.62 9.37l141.26 141.26a32 32 0 019.37 22.62z"
    fill="none" stroke="currentColor" stroke-linejoin="round" stroke-width="32" />
  <path d="M256 56v120a32 32 0 0032 32h120M176 288h160M176 368h160" fill="none" stroke="currentColor"
    stroke-linecap="round" stroke-linejoin="round" stroke-width="32" />
  <circle style="fill:#666666;fill-opacity:1;stroke-width:0" id="path11283" cx="75.764214" cy="227.06139"
    r="8.6481118" />
  <circle style="fill:#666666;fill-opacity:1;stroke-width:0" id="path11283-8" cx="99.259819" cy="227.06139"
    r="8.6481118" />
  <circle style="fill:#666666;fill-opacity:1;stroke-width:0" id="path11283-8-7" cx="146.25078" cy="227.06139"
    r="8.6481118" />
  <circle style="fill:#666666;fill-opacity:1;stroke-width:0" id="path11283-8-5" cx="122.75542" cy="227.06139"
    r="8.6481118" />
</svg>
